<?xml version="1.0" encoding="UTF-8" standalone="no"?>
<!-- Created with Inkscape (http://www.inkscape.org/) -->

<svg
   width="200"
   height="200"
   viewBox="0 0 52.916665 52.916668"
   version="1.1"
   id="svg1265"
   inkscape:version="1.1.2 (b8e25be8, 2022-02-05)"
   sodipodi:docname="favicon.svg"
   xmlns:inkscape="http://www.inkscape.org/namespaces/inkscape"
   xmlns:sodipodi="http://sodipodi.sourceforge.net/DTD/sodipodi-0.dtd"
   xmlns="http://www.w3.org/2000/svg"
   xmlns:svg="http://www.w3.org/2000/svg">
  <sodipodi:namedview
     id="namedview1267"
     pagecolor="#ffffff"
     bordercolor="#666666"
     borderopacity="1.0"
     inkscape:pageshadow="2"
     inkscape:pageopacity="0.0"
     inkscape:pagecheckerboard="0"
     inkscape:document-units="mm"
     showgrid="false"
     units="px"
     inkscape:zoom="1.7726647"
     inkscape:cx="114.79892"
     inkscape:cy="76.720657"
     inkscape:window-width="1399"
     inkscape:window-height="796"
     inkscape:window-x="0"
     inkscape:window-y="25"
     inkscape:window-maximized="0"
     inkscape:current-layer="layer1" />
  <defs
     id="defs1262" />
  <g
     inkscape:label="Capa 1"
     inkscape:groupmode="layer"
     id="layer1">
    <path
       style="fill:#110f05;stroke:none;stroke-width:0.264583px;stroke-linecap:butt;stroke-linejoin:miter;stroke-opacity:1;fill-opacity:1"
       d="M 8.6569295,28.20965 6.7165833,19.104948 20.746779,10.149504 34.776976,11.940592 39.254697,22.98564 45.97128,29.552966 43.433904,46.120539 28.060393,50.299746 12.388365,46.866825 9.1047016,35.523262 Z"
       id="path1394" />
    <path
       id="path20908"
       style="fill:#efd54b;fill-opacity:1;stroke:none;stroke-width:0.264583px;stroke-linecap:butt;stroke-linejoin:miter;stroke-opacity:1"
       d="M 26.8684,0.00353148 C 25.880079,-0.04236171 24.834755,0.35952946 23.870558,1.1810043 21.834069,2.9160248 9.2980507,13.406248 8.0168247,14.627871 6.624824,15.955134 4.2383274,17.255388 4.2383274,20.195799 v 27.484479 c -0.1159329,2.633934 1.8017871,5.20088 4.1688273,5.231751 2.2637943,0.02952 32.4212723,-0.09377 34.8542943,-0.03719 2.433027,0.05658 5.14915,-1.98045 5.14915,-4.866129 0,-2.88568 -0.05673,-25.354192 -0.113309,-27.391136 -0.0566,-2.036951 -0.396119,-3.225291 -2.037,-4.696421 -1.640874,-1.47113 -2.489462,-1.980351 -2.489462,-1.980351 0,0 -0.05667,-6.5635233 -0.05667,-7.4122458 0,-0.8487336 -0.113078,-1.9803447 -1.131556,-1.9803447 h -3.451561 c -0.961896,0 -1.584274,0.3394093 -1.584274,1.1315565 0,0.7921462 0.09983,2.7834602 0.09983,2.7834602 0,0 -6.736646,-5.752889 -8.640888,-7.52655856 C 28.371316,0.34577971 27.637078,0.03922921 26.868385,0.00352743 Z M 22.84856,13.918348 v 2.49e-4 c 0.07587,-4.87e-4 0.151713,2.98e-4 0.227366,0.0019 0.09528,0.0036 0.189413,0.0088 0.282513,0.01498 0.0931,0.0062 0.185084,0.01358 0.276023,0.02221 0.09094,0.0086 0.180738,0.01868 0.269532,0.0297 0.0888,0.01102 0.176617,0.02306 0.263301,0.03641 0.08669,0.01333 0.172222,0.02782 0.25681,0.0434 0.0846,0.01559 0.168303,0.03238 0.250821,0.05016 0.08251,0.01778 0.163865,0.03653 0.244327,0.05643 0.08046,0.0199 0.159901,0.04091 0.238343,0.06289 0.07842,0.02197 0.15592,0.04492 0.232346,0.06888 0.07643,0.02398 0.151927,0.04894 0.226361,0.07487 0.07444,0.02593 0.147898,0.05283 0.220367,0.08062 0.07247,0.02776 0.143855,0.05648 0.214382,0.0861 0.07053,0.02958 0.140039,0.06002 0.208643,0.09134 0.06861,0.03135 0.136447,0.06354 0.203151,0.0966 0.06671,0.03305 0.132332,0.06716 0.197162,0.101817 0.06483,0.03471 0.128697,0.07008 0.191671,0.106319 0.06297,0.03622 0.125039,0.07307 0.18618,0.110807 0.06114,0.03774 0.121362,0.07636 0.18069,0.115555 0.05935,0.03914 0.11791,0.07898 0.175442,0.119542 0.05753,0.04054 0.114198,0.08191 0.169963,0.123792 0.111526,0.08376 0.219362,0.170152 0.323942,0.258802 0.104585,0.08865 0.205921,0.17949 0.303726,0.272533 0.09781,0.09304 0.192066,0.188073 0.283267,0.285008 0.09119,0.09693 0.179277,0.195908 0.264043,0.296239 0.08476,0.100324 0.166323,0.201995 0.244831,0.305228 0.07851,0.103223 0.153935,0.207834 0.226361,0.313455 0.07242,0.105621 0.141878,0.212429 0.208393,0.319955 0.06651,0.107529 0.130141,0.215763 0.190917,0.32469 0.06081,0.108924 0.118738,0.218606 0.173951,0.328434 0.05521,0.109828 0.107659,0.219946 0.157483,0.330181 0.0498,0.110235 0.0969,0.220543 0.141506,0.330687 0.04461,0.110131 0.08672,0.22013 0.126282,0.329676 0.03957,0.109548 0.07662,0.218486 0.111305,0.326937 0.03469,0.108455 0.06685,0.216337 0.09684,0.323193 0.03001,0.106864 0.05765,0.212934 0.0831,0.317708 0.02544,0.104781 0.04876,0.208277 0.06988,0.310465 0.02112,0.102188 0.04023,0.202883 0.05716,0.301985 0.01693,0.09909 0.03172,0.19673 0.04468,0.292245 0.01296,0.09552 0.02386,0.189083 0.03293,0.280515 0.0092,0.09143 0.01626,0.180689 0.02173,0.267544 0.0054,0.08685 0.0092,0.171296 0.01121,0.25306 0.0019,0.08177 0.0019,0.160657 0.0012,0.236845 -0.0031,0.152377 -0.0066,0.299514 -0.01248,0.441993 -0.0055,0.142468 -0.01328,0.280442 -0.02271,0.414283 -0.0094,0.133849 -0.02094,0.263599 -0.03471,0.390087 -0.01376,0.126481 -0.0297,0.249707 -0.0484,0.370108 -0.01868,0.120407 -0.04011,0.238044 -0.06439,0.353647 -0.0243,0.115599 -0.05156,0.229085 -0.0821,0.341157 -0.0305,0.112073 -0.06444,0.222863 -0.101828,0.332683 -0.03738,0.109816 -0.07814,0.218597 -0.123036,0.327431 -0.04492,0.108836 -0.09371,0.217548 -0.146753,0.326694 -0.05302,0.109138 -0.11038,0.218716 -0.172197,0.329431 -0.06181,0.110711 -0.128174,0.222613 -0.199415,0.336172 -0.07123,0.113558 -0.147319,0.228967 -0.228602,0.346648 -0.08129,0.11769 -0.167821,0.2378 -0.259806,0.360886 -0.09197,0.123085 -0.189431,0.249085 -0.292744,0.378849 -0.103311,0.129757 -0.212404,0.263098 -0.327686,0.400811 -0.115282,0.137707 -0.236736,0.279827 -0.364623,0.426762 -0.06394,0.07347 -0.121771,0.145804 -0.173702,0.217129 -0.05193,0.07132 -0.09813,0.141493 -0.138509,0.21064 -0.02022,0.03457 -0.03878,0.06905 -0.05618,0.10307 -0.01742,0.03396 -0.03354,0.06761 -0.04815,0.101065 -0.01461,0.03347 -0.02795,0.06669 -0.03994,0.09958 -0.01199,0.03287 -0.02258,0.06549 -0.0319,0.09783 -0.0093,0.03233 -0.01723,0.06433 -0.02398,0.09608 -0.0068,0.03177 -0.01223,0.06339 -0.0165,0.09459 -0.0043,0.03123 -0.0074,0.06199 -0.0092,0.0926 -0.0019,0.03062 -0.0024,0.06081 -0.0019,0.09084 4.89e-4,0.03001 0.0024,0.0599 0.0054,0.08935 0.0031,0.0294 0.007,0.0585 0.01223,0.08734 0.0054,0.02885 0.01156,0.05734 0.01899,0.08561 0.0074,0.02825 0.01583,0.05624 0.02544,0.08385 0.0096,0.02764 0.02046,0.05485 0.03221,0.08186 0.01175,0.02702 0.02442,0.05393 0.03816,0.08037 0.02751,0.05283 0.05893,0.10439 0.09434,0.15474 0.03544,0.05035 0.07478,0.09942 0.117553,0.147246 0.04279,0.04784 0.08906,0.09448 0.13876,0.139757 0.04967,0.04529 0.102809,0.08909 0.158975,0.131773 0.05618,0.04267 0.115276,0.08422 0.177447,0.124285 0.06217,0.04006 0.127205,0.07867 0.194915,0.116054 0.06771,0.03738 0.138103,0.07362 0.210887,0.108313 0.07279,0.03469 0.147959,0.06788 0.225365,0.09983 0.0774,0.03196 0.157033,0.06265 0.238585,0.09183 0.08155,0.02916 0.165076,0.05672 0.250322,0.0831 0.08525,0.02636 0.17232,0.05137 0.2608,0.07487 0.08848,0.02349 0.178546,0.04577 0.269788,0.06639 0.09124,0.02064 0.183727,0.03969 0.277269,0.05741 0.09354,0.01771 0.18813,0.03391 0.283518,0.04864 0.09539,0.01474 0.191481,0.02795 0.288252,0.03969 0.09676,0.01175 0.194062,0.02197 0.291751,0.03067 0.09768,0.0087 0.195854,0.01583 0.293993,0.02148 0.09813,0.0054 0.196364,0.0097 0.294492,0.01223 0.09813,0.0024 0.196083,0.0036 0.293742,0.0031 0.09765,-6.1e-4 0.195024,-0.0031 0.291753,-0.0068 0.09673,-0.0036 0.192918,-0.0092 0.288252,-0.01625 0.09533,-0.0071 0.189789,-0.01564 0.283265,-0.02593 0.09348,-0.01025 0.185865,-0.02235 0.277022,-0.03592 0.09115,-0.01358 0.182308,-0.0294 0.273526,-0.04743 0.09122,-0.01802 0.182541,-0.03823 0.273782,-0.06013 0.09124,-0.02197 0.182553,-0.04565 0.273778,-0.07112 0.09123,-0.02551 0.182351,-0.05253 0.273526,-0.08112 0.09118,-0.02861 0.182205,-0.05881 0.273283,-0.0901 0.09109,-0.03128 0.182333,-0.06377 0.273284,-0.09733 0.181894,-0.0671 0.363442,-0.138248 0.544564,-0.211887 0.181115,-0.07364 0.361792,-0.149814 0.541811,-0.226611 0.180027,-0.07679 0.359219,-0.154276 0.537826,-0.23085 0.178614,-0.07657 0.35646,-0.152145 0.533339,-0.225114 0.176873,-0.07296 0.352766,-0.143404 0.527587,-0.20939 0.08742,-0.03299 0.174712,-0.06472 0.261553,-0.09534 0.08684,-0.03062 0.173323,-0.06002 0.259556,-0.08785 0.08622,-0.02783 0.172228,-0.054 0.257804,-0.07861 0.08558,-0.0246 0.170675,-0.04743 0.255557,-0.06839 0.08489,-0.02094 0.169415,-0.04006 0.253566,-0.05692 0.08415,-0.01686 0.167937,-0.03153 0.251321,-0.04389 0.08337,-0.01235 0.166499,-0.02247 0.249068,-0.02995 0.08257,-0.0075 0.164613,-0.01235 0.246321,-0.01449 0.08172,-0.0019 0.163013,-0.0012 0.243834,0.0024 0.08082,0.0036 0.161198,0.01014 0.241088,0.01996 0.07989,0.0098 0.15942,0.02301 0.238341,0.03945 0.07892,0.01644 0.157187,0.03622 0.235092,0.05965 0.07791,0.02343 0.155245,0.05047 0.232104,0.08136 0.07687,0.03092 0.153338,0.06555 0.229107,0.104324 0.07577,0.03878 0.150971,0.08171 0.225607,0.128777 0.07463,0.04706 0.148652,0.09821 0.22212,0.153984 0.03677,0.02788 0.07277,0.05704 0.107823,0.08735 0.03506,0.03031 0.0692,0.06187 0.102569,0.09459 0.03335,0.03269 0.06589,0.06678 0.09759,0.101828 0.03172,0.03501 0.06257,0.071 0.0926,0.108313 0.03001,0.03731 0.05923,0.07577 0.0876,0.115299 0.02837,0.03951 0.0557,0.08012 0.08236,0.121789 0.02672,0.04169 0.05259,0.0845 0.07761,0.128283 0.02502,0.04376 0.04925,0.08868 0.07263,0.134517 0.02337,0.04584 0.0459,0.09268 0.06762,0.140508 0.02173,0.04784 0.04255,0.09673 0.06265,0.146497 0.02009,0.0498 0.03945,0.100334 0.05789,0.151994 0.01844,0.05168 0.03586,0.104236 0.05265,0.157728 0.03354,0.106962 0.06381,0.217729 0.09085,0.331677 0.02702,0.113949 0.05083,0.231162 0.07137,0.351645 0.02051,0.120483 0.03786,0.244039 0.05193,0.370613 0.01406,0.126574 0.02484,0.25611 0.03245,0.388331 0.0076,0.132223 0.01199,0.267378 0.01321,0.404804 0.0012,0.137427 -0.0012,0.277343 -0.0061,0.419528 -0.0049,0.142187 -0.0137,0.286501 -0.0252,0.433007 -0.01156,0.146503 -0.02605,0.295105 -0.04389,0.445483 -0.0179,0.150377 -0.03902,0.302657 -0.06314,0.456464 -0.02417,0.153809 -0.0512,0.309156 -0.08161,0.465948 -0.03038,0.156795 -0.06398,0.314849 -0.100574,0.474185 -0.03658,0.159337 -0.07625,0.319988 -0.119044,0.481422 -0.04279,0.161434 -0.08882,0.323823 -0.137762,0.486913 -0.04894,0.163091 -0.100912,0.326851 -0.155987,0.491156 -0.05509,0.164301 -0.113035,0.329077 -0.1742,0.494148 -0.06117,0.165073 -0.125442,0.330503 -0.192663,0.495898 -0.06723,0.165395 -0.137385,0.330621 -0.210638,0.495896 -0.07325,0.165278 -0.149609,0.330435 -0.22886,0.495149 -0.07925,0.164713 -0.161605,0.329195 -0.246822,0.492902 -0.08522,0.163708 -0.173396,0.326651 -0.264547,0.488911 -0.09115,0.162257 -0.185213,0.323802 -0.282262,0.484166 -0.09705,0.160365 -0.197064,0.319651 -0.299989,0.477678 -0.102917,0.158027 -0.208691,0.314695 -0.317452,0.469943 -0.10876,0.155246 -0.22036,0.308934 -0.334923,0.460956 -0.114569,0.152021 -0.232055,0.30237 -0.352395,0.450725 -0.120339,0.148353 -0.243534,0.294751 -0.369614,0.438995 -0.06305,0.07211 -0.127651,0.143483 -0.193662,0.213882 -0.06603,0.0704 -0.133501,0.139967 -0.202409,0.208641 -0.0689,0.06867 -0.139161,0.136454 -0.210888,0.2034 -0.07172,0.06695 -0.144914,0.132941 -0.219368,0.198159 -0.07446,0.06522 -0.150252,0.129681 -0.22736,0.193168 -0.07711,0.06348 -0.155665,0.125922 -0.235342,0.187677 -0.07969,0.06176 -0.160412,0.122667 -0.242585,0.182685 -0.08217,0.06002 -0.165732,0.119162 -0.250323,0.177446 -0.08458,0.05827 -0.170389,0.115909 -0.257308,0.172453 -0.08692,0.05655 -0.174878,0.112161 -0.264044,0.166963 -0.08916,0.05481 -0.179447,0.108662 -0.270781,0.161722 -0.09134,0.05306 -0.183843,0.105163 -0.277276,0.15648 -0.09342,0.05132 -0.187825,0.101926 -0.283262,0.151491 -0.09544,0.04956 -0.191884,0.09818 -0.289256,0.145998 -0.09737,0.04783 -0.195518,0.09469 -0.294734,0.140759 -0.09922,0.04606 -0.199506,0.09145 -0.300488,0.135766 -0.100989,0.04432 -0.202799,0.08771 -0.305479,0.130276 -0.102678,0.04256 -0.206177,0.08422 -0.310458,0.125033 -0.104291,0.04081 -0.209404,0.08075 -0.315214,0.119794 -0.105806,0.03904 -0.212191,0.07727 -0.319449,0.114554 -0.214516,0.07458 -0.431808,0.145611 -0.651634,0.213134 -0.219818,0.06753 -0.442363,0.131466 -0.666846,0.19192 -0.224486,0.06045 -0.451074,0.117338 -0.679586,0.170706 -0.228504,0.05337 -0.458927,0.103223 -0.690804,0.149493 -0.231891,0.04627 -0.46518,0.08888 -0.699803,0.12803 -0.234617,0.03915 -0.470567,0.0748 -0.707283,0.10682 -0.236711,0.03202 -0.474116,0.06048 -0.712274,0.08535 -0.238161,0.02487 -0.477051,0.04617 -0.716019,0.0639 -0.238964,0.0177 -0.478135,0.03191 -0.717268,0.04243 -0.239127,0.01057 -0.478114,0.01739 -0.716768,0.02071 -0.238646,0.0034 -0.476994,0.0032 -0.714521,-7.91e-4 -0.237526,-0.0038 -0.474267,-0.01136 -0.710029,-0.02247 -0.235755,-0.0111 -0.470438,-0.02583 -0.70379,-0.04418 -0.233349,-0.01835 -0.465252,-0.04029 -0.695553,-0.06589 -0.230294,-0.0256 -0.458964,-0.05498 -0.685569,-0.08785 -0.2266,-0.03289 -0.451324,-0.0694 -0.673591,-0.109562 -0.222266,-0.04017 -0.442084,-0.0838 -0.659364,-0.131275 -0.217286,-0.04747 -0.431985,-0.0987 -0.643647,-0.153485 -0.105829,-0.02739 -0.2109,-0.05562 -0.315207,-0.08486 -0.104302,-0.02922 -0.207766,-0.05954 -0.310464,-0.09059 -0.1027,-0.03106 -0.204715,-0.06294 -0.305722,-0.09583 -0.101011,-0.0329 -0.200997,-0.06684 -0.300239,-0.101577 -0.09924,-0.03474 -0.197594,-0.07024 -0.294989,-0.10682 -0.09739,-0.03658 -0.193784,-0.07413 -0.289257,-0.112557 -0.09546,-0.03842 -0.190052,-0.07778 -0.28351,-0.118046 -0.09346,-0.04026 -0.185907,-0.08142 -0.277271,-0.123538 -0.09137,-0.04211 -0.181852,-0.08555 -0.271287,-0.130026 -0.08942,-0.04446 -0.177804,-0.09 -0.26529,-0.136766 -0.08747,-0.04675 -0.17403,-0.09451 -0.259551,-0.143504 -0.08553,-0.04898 -0.170006,-0.09908 -0.253573,-0.150241 -0.08355,-0.05115 -0.166225,-0.103474 -0.247819,-0.15673 -0.08159,-0.05327 -0.162226,-0.107659 -0.241836,-0.162969 -0.07961,-0.05531 -0.158222,-0.111423 -0.23584,-0.168709 -0.07762,-0.05729 -0.154235,-0.115743 -0.229857,-0.174949 -0.07561,-0.05921 -0.150254,-0.119375 -0.223867,-0.18044 -0.07361,-0.06107 -0.146028,-0.123068 -0.217627,-0.185931 -0.07159,-0.06286 -0.142316,-0.126573 -0.211881,-0.19117 -0.06956,-0.0646 -0.138115,-0.129893 -0.205647,-0.196163 -0.06754,-0.06627 -0.133915,-0.133522 -0.199407,-0.201404 -0.06549,-0.06788 -0.129983,-0.136464 -0.193419,-0.205896 -0.06344,-0.06942 -0.125801,-0.139717 -0.187172,-0.210638 -0.06138,-0.07093 -0.121893,-0.142534 -0.181189,-0.21488 -0.05928,-0.07235 -0.117479,-0.145413 -0.174705,-0.219123 -0.05723,-0.07372 -0.113322,-0.148104 -0.168454,-0.223117 -0.05515,-0.07501 -0.109432,-0.150606 -0.162476,-0.226859 -0.05302,-0.07626 -0.104793,-0.153171 -0.155731,-0.230602 -0.05095,-0.07743 -0.100923,-0.1553 -0.149742,-0.233849 -0.04882,-0.07856 -0.09655,-0.157737 -0.143252,-0.237341 -0.0467,-0.0796 -0.09245,-0.159738 -0.137014,-0.240338 -0.04456,-0.0806 -0.0881,-0.161551 -0.13053,-0.243082 -0.04237,-0.08153 -0.08377,-0.163676 -0.124035,-0.246078 -0.0403,-0.08239 -0.07943,-0.165113 -0.117546,-0.248322 -0.03811,-0.08321 -0.07511,-0.166863 -0.111063,-0.250818 -0.03592,-0.08395 -0.07081,-0.168176 -0.104564,-0.252814 -0.03372,-0.08464 -0.0665,-0.169549 -0.09808,-0.254812 -0.0316,-0.08526 -0.06196,-0.170985 -0.09135,-0.256808 -0.0294,-0.08583 -0.05765,-0.171983 -0.08486,-0.258307 -0.02721,-0.08632 -0.05339,-0.172791 -0.07836,-0.259553 -0.02496,-0.08675 -0.04888,-0.173664 -0.07162,-0.260802 -0.02277,-0.08715 -0.04437,-0.174599 -0.0649,-0.262048 -0.02051,-0.08745 -0.03982,-0.174846 -0.05814,-0.26255 -0.01832,-0.0877 -0.03561,-0.175652 -0.05168,-0.263546 -0.016,-0.08789 -0.03092,-0.175775 -0.04468,-0.263797 -0.01375,-0.08802 -0.02642,-0.176206 -0.03799,-0.264294 -0.01157,-0.08809 -0.02192,-0.176202 -0.03122,-0.264295 -0.0092,-0.08809 -0.01723,-0.176009 -0.02418,-0.264047 -0.007,-0.08803 -0.01279,-0.176127 -0.01747,-0.264045 -0.0049,-0.08792 -0.0081,-0.17581 -0.01046,-0.263547 -0.0024,-0.08773 -0.0036,-0.175302 -0.0036,-0.262798 -6.2e-5,-0.08749 0.0012,-0.174858 0.0036,-0.262049 0.0024,-0.08719 0.0054,-0.174225 0.01025,-0.261052 0.0043,-0.08683 0.01025,-0.173403 0.01723,-0.259803 0.0069,-0.08639 0.01522,-0.172645 0.02447,-0.258555 0.0092,-0.0859 0.01953,-0.171449 0.03123,-0.256808 0.01163,-0.08536 0.02442,-0.170564 0.03847,-0.255312 0.01394,-0.08475 0.0291,-0.168992 0.04541,-0.253064 0.01638,-0.08407 0.03396,-0.167982 0.05265,-0.251317 0.01875,-0.08334 0.03853,-0.166286 0.05966,-0.248823 0.02112,-0.08254 0.04364,-0.164649 0.06714,-0.246326 0.02349,-0.08167 0.04821,-0.162826 0.07412,-0.243581 0.02593,-0.08076 0.05302,-0.161064 0.08136,-0.240836 0.02837,-0.07977 0.05784,-0.159114 0.0886,-0.237841 0.03074,-0.07872 0.06289,-0.156727 0.09608,-0.234347 0.03318,-0.07762 0.06744,-0.154652 0.10307,-0.231102 0.03561,-0.07645 0.07247,-0.15239 0.110564,-0.227609 0.03811,-0.07522 0.0775,-0.149937 0.118045,-0.223864 0.04054,-0.07392 0.08226,-0.14705 0.125282,-0.219622 0.04304,-0.07257 0.08729,-0.144473 0.132777,-0.21563 0.04546,-0.07115 0.09228,-0.141707 0.140256,-0.211387 0.04797,-0.06968 0.09727,-0.138505 0.147747,-0.206643 0.181638,-0.245215 0.349058,-0.476057 0.503139,-0.693563 0.154076,-0.217499 0.29482,-0.421643 0.423018,-0.613941 0.128199,-0.192298 0.243907,-0.372706 0.347902,-0.542317 0.05198,-0.0848 0.100988,-0.166975 0.147246,-0.246579 0.04627,-0.0796 0.08979,-0.156638 0.130524,-0.231348 0.04072,-0.07472 0.07864,-0.146984 0.114058,-0.217128 0.03537,-0.07013 0.06828,-0.138017 0.09858,-0.203899 0.03031,-0.06589 0.05796,-0.12974 0.08336,-0.191671 0.02539,-0.06193 0.04864,-0.122136 0.06939,-0.180441 0.0207,-0.05832 0.03914,-0.11472 0.05539,-0.169708 0.01625,-0.05497 0.03019,-0.108487 0.04219,-0.160473 0.01199,-0.05198 0.02179,-0.10246 0.0297,-0.151738 0.0078,-0.0493 0.01394,-0.09734 0.01796,-0.14425 0.0036,-0.04687 0.0063,-0.09267 0.0068,-0.137519 4.34e-4,-0.0448 -0.0012,-0.08868 -0.0036,-0.131771 -0.0031,-0.0431 -0.0075,-0.08537 -0.0137,-0.12703 -0.0062,-0.04169 -0.01394,-0.08275 -0.02325,-0.123286 -0.0092,-0.04054 -0.0199,-0.08056 -0.0319,-0.120292 -0.01204,-0.03975 -0.02557,-0.07907 -0.04018,-0.118301 -0.01461,-0.03921 -0.03043,-0.07825 -0.04743,-0.117295 -0.01698,-0.03909 -0.03518,-0.07812 -0.05442,-0.117303 -0.03835,-0.07837 -0.08075,-0.157308 -0.126536,-0.238085 -0.04577,-0.08079 -0.09496,-0.163366 -0.146497,-0.249075 -0.05156,-0.08571 -0.10561,-0.174644 -0.161222,-0.267787 -0.05563,-0.09314 -0.1127,-0.190659 -0.170706,-0.293743 -0.04328,0.01102 -0.08726,0.02058 -0.131772,0.02868 -0.04449,0.0082 -0.08957,0.01486 -0.135272,0.02021 -0.04571,0.0054 -0.09212,0.0094 -0.139004,0.01199 -0.04687,0.0024 -0.09421,0.0036 -0.142261,0.0036 -0.04802,1.8e-5 -0.09678,-0.0012 -0.145997,-0.0036 -0.04918,-0.0024 -0.09888,-0.0063 -0.149243,-0.01126 -0.05035,-0.0049 -0.1015,-0.0109 -0.152986,-0.0182 -0.0515,-0.0073 -0.103376,-0.01588 -0.155986,-0.02544 -0.06662,-0.01211 -0.142231,-0.02898 -0.225109,-0.05065 -0.08288,-0.02167 -0.172977,-0.04797 -0.26929,-0.07911 -0.09631,-0.03117 -0.198805,-0.06704 -0.305723,-0.107572 -0.106918,-0.04054 -0.21823,-0.08566 -0.332926,-0.135516 -0.114704,-0.04986 -0.23273,-0.104389 -0.352394,-0.163468 -0.119664,-0.05905 -0.241082,-0.12269 -0.362876,-0.190916 -0.121801,-0.06824 -0.24401,-0.141067 -0.365123,-0.218376 -0.06056,-0.03865 -0.120833,-0.07863 -0.180689,-0.119543 -0.05984,-0.04091 -0.11914,-0.08288 -0.177945,-0.126037 -0.0588,-0.04316 -0.117058,-0.08737 -0.17445,-0.13277 -0.05741,-0.04541 -0.114068,-0.0919 -0.169707,-0.13951 -0.05563,-0.0476 -0.110193,-0.09642 -0.163718,-0.146247 -0.05351,-0.04986 -0.105926,-0.100705 -0.156979,-0.152736 -0.05108,-0.05205 -0.100749,-0.10524 -0.148994,-0.159475 -0.04828,-0.05424 -0.09494,-0.109554 -0.140007,-0.165964 -0.04505,-0.05643 -0.08849,-0.113869 -0.130033,-0.17246 -0.04151,-0.05857 -0.08138,-0.118179 -0.119042,-0.178942 -0.03768,-0.06076 -0.07313,-0.122769 -0.106569,-0.18568 -0.03342,-0.06293 -0.06475,-0.126867 -0.09359,-0.191921 -0.02885,-0.06506 -0.05545,-0.131212 -0.07936,-0.198409 -0.02393,-0.0672 -0.04523,-0.135328 -0.0639,-0.204645 -0.01863,-0.06932 -0.03446,-0.139703 -0.04742,-0.211144 -0.01297,-0.07144 -0.02319,-0.144079 -0.03019,-0.217626 -0.007,-0.07354 -0.01079,-0.147969 -0.0115,-0.223611 -4.8e-4,-0.07564 0.0019,-0.152376 0.008,-0.230106 0.008,-0.03233 0.01759,-0.06287 0.02843,-0.09183 0.0109,-0.02897 0.02313,-0.05631 0.03671,-0.08211 0.01358,-0.02581 0.02855,-0.05011 0.04468,-0.07287 0.01612,-0.02282 0.03354,-0.04419 0.05217,-0.06415 0.01863,-0.01996 0.03841,-0.03865 0.05942,-0.05588 0.021,-0.01729 0.04334,-0.03318 0.06663,-0.04791 0.02325,-0.01473 0.0476,-0.02831 0.07312,-0.04066 0.02551,-0.01235 0.05205,-0.02349 0.07961,-0.03372 0.02757,-0.01014 0.05606,-0.01936 0.0856,-0.02745 0.02958,-0.0081 0.06013,-0.01528 0.09159,-0.02143 0.06288,-0.01247 0.129343,-0.02112 0.199158,-0.02697 0.06982,-0.0061 0.142932,-0.0088 0.21887,-0.0093 0.07594,-4.86e-4 0.154831,0.0012 0.236097,0.0049 0.08126,0.0036 0.165033,0.0089 0.250821,0.01522 0.08578,0.0063 0.173542,0.01364 0.263044,0.02143 0.178998,0.01558 0.36452,0.03281 0.553549,0.04663 0.09451,0.007 0.189942,0.01316 0.285755,0.01771 0.09581,0.0049 0.192195,0.0077 0.288509,0.0088 0.09631,0.0012 0.192498,-3.23e-4 0.2885,-0.0043 0.09601,-0.0036 0.191866,-0.01068 0.286761,-0.0207 0.09349,-0.01003 0.186107,-0.01936 0.27802,-0.02751 0.09191,-0.0081 0.182881,-0.01498 0.273027,-0.01948 0.09015,-0.0043 0.179582,-0.0066 0.267793,-0.0054 0.0882,0.0012 0.175217,0.0049 0.261297,0.01296 0.01693,-0.131747 0.03726,-0.26185 0.06063,-0.390573 0.02343,-0.128729 0.04992,-0.255964 0.07961,-0.381601 0.0297,-0.125624 0.06253,-0.24964 0.09833,-0.372104 0.0358,-0.122465 0.07463,-0.243395 0.116299,-0.362628 0.04164,-0.11923 0.08623,-0.236715 0.133518,-0.352642 0.0473,-0.115927 0.09728,-0.230356 0.149997,-0.342911 0.05271,-0.112554 0.108063,-0.223311 0.165958,-0.332427 0.05789,-0.109115 0.118313,-0.216591 0.181189,-0.3222 0.06288,-0.1056 0.128284,-0.209434 0.195914,-0.311463 0.06762,-0.102024 0.137475,-0.202105 0.209646,-0.300482 0.07216,-0.09837 0.146637,-0.195092 0.223113,-0.28975 0.07647,-0.09466 0.155031,-0.187397 0.235595,-0.278275 0.08055,-0.09086 0.163142,-0.179769 0.247572,-0.266787 0.08443,-0.08703 0.170731,-0.171973 0.258801,-0.255064 0.08808,-0.08309 0.177786,-0.16423 0.269291,-0.243329 0.0915,-0.0791 0.184809,-0.156314 0.279522,-0.231353 0.09471,-0.07505 0.190813,-0.14797 0.288502,-0.218875 0.09769,-0.0709 0.19704,-0.139685 0.297486,-0.20639 0.100454,-0.06671 0.202238,-0.131236 0.305223,-0.193667 0.102994,-0.06243 0.207152,-0.122848 0.312468,-0.18094 0.105305,-0.05808 0.211789,-0.114021 0.3192,-0.16771 0.107408,-0.05369 0.215654,-0.105272 0.324939,-0.15449 0.109286,-0.04918 0.219492,-0.09608 0.330432,-0.140757 0.110941,-0.04468 0.222552,-0.08697 0.334929,-0.12703 0.112372,-0.04006 0.225577,-0.07768 0.339167,-0.113053 0.113582,-0.03537 0.22758,-0.06846 0.342155,-0.09908 0.114581,-0.03062 0.229564,-0.0588 0.344912,-0.0846 0.115342,-0.02581 0.231007,-0.04925 0.346897,-0.07013 0.115902,-0.02088 0.232182,-0.03945 0.348401,-0.05539 0.116224,-0.01595 0.232571,-0.02928 0.348899,-0.04018 0.116329,-0.0109 0.232688,-0.01941 0.348906,-0.0252 0.116213,-0.0061 0.232273,-0.0092 0.348145,-0.0097 z"
       sodipodi:nodetypes="sssscssssscsssscsscccsssssssssccssssscssssssssssssscssssscsssscssccsssssssssssssssssssccscsssssssssssssssssssssssscssssssssssssssssssssccssssssssssscscsscsssssscccsccssssssssssssssssssssssssssssssssssssssssssssssscsssssssssssssssssssssssssssssssssssssssssssssssssscsscscccsccsscscssssssssssssssssssssssssscssscssscsssccccssssssssssssssssssssssssssssccssssssscccsssccccscsscccssscssssssssssssssssssssssssssccc" />
  </g>
</svg>
