<?xml version="1.0" encoding="UTF-8" standalone="no"?>
<!-- Created with Inkscape (http://www.inkscape.org/) -->

<svg
   width="41"
   height="49"
   viewBox="0 0 10.847916 12.964584"
   version="1.1"
   id="svg7298"
   inkscape:version="1.1.2 (b8e25be8, 2022-02-05)"
   sodipodi:docname="imago.svg"
   xmlns:inkscape="http://www.inkscape.org/namespaces/inkscape"
   xmlns:sodipodi="http://sodipodi.sourceforge.net/DTD/sodipodi-0.dtd"
   xmlns="http://www.w3.org/2000/svg"
   xmlns:svg="http://www.w3.org/2000/svg">
  <sodipodi:namedview
     id="namedview7300"
     pagecolor="#ffffff"
     bordercolor="#666666"
     borderopacity="1.0"
     inkscape:pageshadow="2"
     inkscape:pageopacity="0.0"
     inkscape:pagecheckerboard="0"
     inkscape:document-units="px"
     showgrid="false"
     units="px"
     inkscape:zoom="1.3795966"
     inkscape:cx="176.50087"
     inkscape:cy="71.035259"
     inkscape:window-width="1399"
     inkscape:window-height="792"
     inkscape:window-x="16"
     inkscape:window-y="110"
     inkscape:window-maximized="0"
     inkscape:current-layer="g25781" />
  <defs
     id="defs7295" />
  <g
     inkscape:label="Capa 1"
     inkscape:groupmode="layer"
     id="layer1">
    <g
       id="g25781"
       transform="matrix(0.14885753,0,0,0.14885753,32.056494,22.509998)"
       style="stroke-width:6.71784">
      <path
         id="path20908"
         style="fill:#efd54b;fill-opacity:1;stroke:none;stroke-width:1.77743px;stroke-linecap:butt;stroke-linejoin:miter;stroke-opacity:1"
         d="m -178.16609,-151.2126 c -1.62358,-0.0754 -3.3408,0.58482 -4.92475,1.93431 -3.34547,2.85023 -23.93919,20.08319 -26.04394,22.09003 -2.28673,2.18038 -6.20718,4.31639 -6.20718,9.14679 v 45.150516 c -0.19045,4.326933 2.95991,8.54382 6.8484,8.594533 3.71888,0.04849 53.2605,-0.15404 57.25738,-0.06109 3.99689,0.09295 8.45884,-3.253412 8.45884,-7.993904 0,-4.74049 -0.0932,-41.650955 -0.18614,-44.997175 -0.093,-3.34623 -0.65073,-5.29839 -3.34631,-7.71511 -2.69557,-2.41672 -4.0896,-3.25325 -4.0896,-3.25325 0,0 -0.0931,-10.78232 -0.0931,-12.17657 0,-1.39427 -0.18576,-3.25324 -1.85888,-3.25324 h -5.6701 c -1.58017,0 -2.60259,0.55757 -2.60259,1.85888 0,1.30131 0.164,4.57257 0.164,4.57257 0,0 -11.06672,-9.45064 -14.19494,-12.36436 -1.04216,-0.97069 -2.24834,-1.47428 -3.51112,-1.53293 z m -6.60365,22.85876 v 4.1e-4 c 0.12464,-8e-4 0.24923,4.9e-4 0.37351,0.003 0.15651,0.006 0.31116,0.0144 0.4641,0.0246 0.15294,0.0102 0.30405,0.0223 0.45344,0.0365 0.14939,0.0142 0.29691,0.0307 0.44278,0.0488 0.14588,0.0181 0.29014,0.0379 0.43254,0.0598 0.1424,0.0219 0.28292,0.0457 0.42188,0.0713 0.13896,0.0256 0.27648,0.0532 0.41204,0.0824 0.13554,0.0292 0.26919,0.06 0.40137,0.0927 0.13218,0.0327 0.26268,0.0672 0.39154,0.10332 0.12884,0.0361 0.25614,0.0738 0.38169,0.11315 0.12555,0.0394 0.24958,0.0804 0.37186,0.123 0.12228,0.0426 0.24296,0.0868 0.36201,0.13243 0.11906,0.0456 0.23632,0.0928 0.35218,0.14144 0.11587,0.0486 0.23005,0.0986 0.34275,0.15006 0.11271,0.0515 0.22415,0.10438 0.33373,0.15867 0.10958,0.0543 0.21739,0.11031 0.32389,0.16727 0.1065,0.057 0.21142,0.11512 0.31487,0.17465 0.10345,0.0595 0.20541,0.12003 0.30585,0.18203 0.10044,0.062 0.19937,0.12546 0.29683,0.18983 0.0975,0.0643 0.1937,0.12974 0.28821,0.19638 0.0945,0.0666 0.1876,0.13456 0.27921,0.20336 0.18321,0.13759 0.36036,0.27952 0.53216,0.42515 0.1718,0.14563 0.33828,0.29486 0.49895,0.44771 0.16067,0.15284 0.31552,0.30896 0.46534,0.4682 0.14981,0.15924 0.29451,0.32183 0.43376,0.48665 0.13925,0.16482 0.27323,0.33183 0.4022,0.50142 0.12897,0.16957 0.25288,0.34142 0.37186,0.51493 0.11897,0.17352 0.23307,0.34897 0.34234,0.52561 0.10926,0.17664 0.21379,0.35445 0.31363,0.53339 0.0999,0.17894 0.19506,0.35912 0.28576,0.53954 0.0907,0.18042 0.17686,0.36132 0.25871,0.54241 0.0818,0.18109 0.15918,0.3623 0.23246,0.54324 0.0733,0.18092 0.14246,0.36162 0.20745,0.54158 0.065,0.17996 0.12587,0.35892 0.18285,0.53708 0.057,0.17817 0.10981,0.35539 0.15907,0.53093 0.0493,0.17556 0.0947,0.3498 0.13653,0.52192 0.0418,0.17212 0.0801,0.34215 0.1148,0.51002 0.0347,0.16787 0.0661,0.33329 0.0939,0.49609 0.0278,0.16279 0.0521,0.32318 0.0734,0.48009 0.0213,0.15691 0.0392,0.31062 0.0541,0.46082 0.0149,0.1502 0.0267,0.29683 0.0357,0.43951 0.009,0.14267 0.0152,0.2814 0.0184,0.41572 0.003,0.13433 0.003,0.26392 0.002,0.38908 -0.005,0.25032 -0.011,0.49203 -0.0205,0.72609 -0.009,0.23404 -0.0218,0.4607 -0.0373,0.68057 -0.0155,0.21988 -0.0344,0.43303 -0.057,0.64082 -0.0226,0.20778 -0.0488,0.41021 -0.0795,0.608 -0.0307,0.1978 -0.0659,0.39105 -0.10578,0.58096 -0.0399,0.1899 -0.0847,0.37633 -0.13488,0.56044 -0.0501,0.18411 -0.10586,0.36611 -0.16728,0.54652 -0.0614,0.1804 -0.12837,0.3591 -0.20212,0.53789 -0.0738,0.1788 -0.15395,0.35738 -0.24108,0.53668 -0.0871,0.17929 -0.18133,0.3593 -0.28288,0.54118 -0.10155,0.18187 -0.21056,0.3657 -0.32759,0.55225 -0.11701,0.18655 -0.24201,0.37614 -0.37554,0.56946 -0.13354,0.19334 -0.27569,0.39065 -0.4268,0.59285 -0.1511,0.2022 -0.31119,0.40919 -0.48091,0.62236 -0.16972,0.21316 -0.34893,0.43221 -0.53831,0.65844 -0.18938,0.22622 -0.3889,0.45969 -0.59899,0.70107 -0.10505,0.12069 -0.20004,0.23952 -0.28535,0.35669 -0.0853,0.11716 -0.1612,0.23244 -0.22754,0.34603 -0.0332,0.0568 -0.0637,0.11344 -0.0923,0.16933 -0.0286,0.0558 -0.0551,0.11107 -0.0791,0.16603 -0.024,0.055 -0.0459,0.10954 -0.0656,0.16359 -0.0197,0.054 -0.0371,0.10759 -0.0524,0.16071 -0.0153,0.0531 -0.0283,0.10567 -0.0394,0.15785 -0.0111,0.0522 -0.0201,0.10415 -0.0271,0.15538 -0.007,0.0513 -0.0122,0.10183 -0.0152,0.15211 -0.003,0.0503 -0.004,0.0999 -0.003,0.14923 8e-4,0.0493 0.004,0.0984 0.009,0.14678 0.005,0.0483 0.0115,0.0961 0.0201,0.14349 0.009,0.0474 0.019,0.0942 0.0312,0.14063 0.0122,0.0464 0.026,0.0924 0.0418,0.13775 0.0158,0.0454 0.0336,0.0901 0.0529,0.13448 0.0193,0.0444 0.0401,0.0886 0.0627,0.13201 0.0452,0.0868 0.0968,0.17148 0.15497,0.2542 0.0582,0.0827 0.12284,0.16331 0.19311,0.24189 0.0703,0.0786 0.14631,0.15521 0.22795,0.22959 0.0816,0.0744 0.16889,0.14635 0.26116,0.21647 0.0923,0.0701 0.18937,0.13836 0.2915,0.20417 0.10213,0.0658 0.20897,0.12922 0.3202,0.19065 0.11123,0.0614 0.22687,0.12094 0.34644,0.17793 0.11957,0.057 0.24306,0.11151 0.37022,0.164 0.12715,0.0525 0.25797,0.10294 0.39194,0.15087 0.13398,0.0479 0.27118,0.0932 0.41122,0.13653 0.14004,0.0433 0.28308,0.0844 0.42843,0.12299 0.14535,0.0386 0.29331,0.0752 0.4432,0.10906 0.14989,0.0339 0.30182,0.0652 0.45549,0.0943 0.15368,0.0291 0.30905,0.0557 0.46575,0.0799 0.1567,0.0242 0.31456,0.0459 0.47353,0.0652 0.15897,0.0193 0.3188,0.0361 0.47928,0.0504 0.16046,0.0143 0.32174,0.026 0.48296,0.0353 0.16121,0.009 0.32258,0.016 0.48378,0.0201 0.16121,0.004 0.32212,0.006 0.48255,0.005 0.16043,-0.001 0.32038,-0.005 0.47928,-0.0111 0.1589,-0.006 0.31692,-0.0151 0.47353,-0.0267 0.15661,-0.0116 0.31178,-0.0257 0.46534,-0.0426 0.15355,-0.0169 0.30533,-0.0367 0.45508,-0.059 0.14974,-0.0223 0.29949,-0.0483 0.44934,-0.0779 0.14986,-0.0296 0.29987,-0.0628 0.44976,-0.0988 0.14989,-0.0361 0.29989,-0.075 0.44975,-0.11684 0.14987,-0.0419 0.29956,-0.0863 0.44934,-0.13325 0.14978,-0.047 0.29932,-0.0966 0.44894,-0.14801 0.14963,-0.0514 0.29953,-0.10477 0.44894,-0.15989 0.29881,-0.11023 0.59705,-0.22711 0.89459,-0.34808 0.29753,-0.12097 0.59434,-0.24611 0.89007,-0.37227 0.29574,-0.12615 0.59011,-0.25344 0.88352,-0.37923 0.29342,-0.12579 0.58558,-0.24994 0.87615,-0.36981 0.29056,-0.11987 0.57951,-0.23558 0.8667,-0.34398 0.1436,-0.0542 0.28701,-0.10632 0.42967,-0.15661 0.14266,-0.0503 0.28473,-0.0986 0.42639,-0.14432 0.14164,-0.0457 0.28293,-0.0887 0.42351,-0.12914 0.14058,-0.0404 0.28038,-0.0779 0.41982,-0.11234 0.13945,-0.0344 0.27831,-0.0658 0.41655,-0.0935 0.13824,-0.0277 0.27588,-0.0518 0.41286,-0.0721 0.13697,-0.0203 0.27352,-0.0369 0.40916,-0.0492 0.13564,-0.0123 0.27042,-0.0203 0.40465,-0.0238 0.13425,-0.003 0.26779,-0.002 0.40056,0.004 0.13278,0.006 0.26481,0.0167 0.39605,0.0328 0.13124,0.0161 0.26189,0.0378 0.39154,0.0648 0.12964,0.027 0.25822,0.0595 0.3862,0.098 0.12799,0.0385 0.25503,0.0829 0.38129,0.13365 0.12627,0.0508 0.2519,0.10769 0.37637,0.17138 0.12447,0.0637 0.24801,0.13423 0.37062,0.21155 0.12262,0.0773 0.2442,0.16133 0.36489,0.25296 0.0604,0.0458 0.11954,0.0937 0.17712,0.1435 0.0576,0.0498 0.11368,0.10164 0.1685,0.15538 0.0548,0.0537 0.10824,0.10972 0.1603,0.16728 0.0521,0.0575 0.10279,0.11664 0.15211,0.17793 0.0493,0.0613 0.0973,0.12448 0.1439,0.18941 0.0466,0.0649 0.0915,0.1316 0.1353,0.20007 0.0439,0.0685 0.0864,0.1388 0.1275,0.21074 0.0411,0.0719 0.0809,0.14568 0.11931,0.22098 0.0384,0.0753 0.0754,0.15224 0.1111,0.23082 0.0357,0.0786 0.0699,0.1589 0.10291,0.24066 0.033,0.0818 0.0648,0.16483 0.0951,0.24969 0.0303,0.0849 0.0589,0.17124 0.0865,0.25911 0.0551,0.175722 0.10483,0.357678 0.14923,0.544869 0.0444,0.187189 0.0835,0.379744 0.11725,0.577669 0.0337,0.197925 0.0622,0.400898 0.0853,0.608829 0.0231,0.207931 0.0408,0.420728 0.0533,0.637937 0.0125,0.217211 0.0197,0.439238 0.0217,0.664997 0.002,0.225759 -0.002,0.455608 -0.01,0.689186 -0.008,0.23358 -0.0225,0.470653 -0.0414,0.711327 -0.019,0.240671 -0.0428,0.484789 -0.0721,0.731823 -0.0294,0.247035 -0.0641,0.497195 -0.10373,0.749865 -0.0397,0.25267 -0.0841,0.507869 -0.13406,0.765442 -0.0499,0.257576 -0.1051,0.517222 -0.16523,0.778974 -0.0601,0.261753 -0.12526,0.525664 -0.19556,0.790863 -0.0703,0.265199 -0.14591,0.531963 -0.22631,0.799883 -0.0804,0.26792 -0.16578,0.53694 -0.25625,0.806852 -0.0905,0.26991 -0.18569,0.540599 -0.28617,0.811771 -0.10048,0.271173 -0.20607,0.542937 -0.3165,0.814642 -0.11044,0.271706 -0.22569,0.543132 -0.34603,0.814641 -0.12034,0.271512 -0.24577,0.542826 -0.37596,0.813412 -0.13019,0.270586 -0.26548,0.54079 -0.40547,0.809722 -0.13999,0.268934 -0.28485,0.536612 -0.43459,0.803164 -0.14974,0.266552 -0.30426,0.531931 -0.46369,0.795371 -0.15944,0.263442 -0.32373,0.525112 -0.49281,0.784713 -0.16907,0.259602 -0.34283,0.516971 -0.5215,0.772005 -0.17867,0.255032 -0.362,0.507506 -0.5502,0.757243 -0.18821,0.249735 -0.38121,0.496723 -0.5789,0.740434 -0.19769,0.243711 -0.40007,0.484208 -0.60719,0.721166 -0.10356,0.118479 -0.2097,0.235709 -0.31814,0.351358 -0.10846,0.115647 -0.21931,0.229932 -0.33251,0.342747 -0.11319,0.112814 -0.22861,0.224162 -0.34644,0.334137 -0.11782,0.109978 -0.23806,0.218394 -0.36037,0.325531 -0.12231,0.107136 -0.24683,0.213034 -0.3735,0.317327 -0.12667,0.104295 -0.25572,0.206863 -0.38661,0.308311 -0.1309,0.101447 -0.26352,0.201513 -0.39851,0.300109 -0.135,0.0986 -0.27226,0.195756 -0.41122,0.2915 -0.13895,0.09574 -0.27991,0.190413 -0.4227,0.2833 -0.14278,0.09289 -0.28728,0.184253 -0.43376,0.27428 -0.14648,0.09003 -0.29479,0.178506 -0.44483,0.265672 -0.15005,0.08716 -0.30201,0.172762 -0.4555,0.257061 -0.15348,0.0843 -0.30855,0.167431 -0.46533,0.248862 -0.15678,0.08143 -0.31522,0.161282 -0.47518,0.23984 -0.15995,0.07856 -0.32119,0.155552 -0.48418,0.231234 -0.163,0.07568 -0.32774,0.150228 -0.49363,0.223032 -0.1659,0.0728 -0.33315,0.144091 -0.50183,0.214012 -0.16867,0.06992 -0.3387,0.138366 -0.51001,0.205402 -0.17132,0.06703 -0.344,0.132648 -0.51782,0.196793 -0.17382,0.06414 -0.34858,0.12693 -0.52478,0.188185 -0.3524,0.122509 -0.70936,0.239204 -1.07048,0.350128 -0.36111,0.110922 -0.7267,0.215969 -1.09547,0.315279 -0.36878,0.09931 -0.74101,0.192759 -1.1164,0.280431 -0.37538,0.08767 -0.75391,0.169573 -1.13483,0.245581 -0.38094,0.076 -0.76418,0.146005 -1.14961,0.210322 -0.38542,0.06432 -0.77303,0.122872 -1.1619,0.175474 -0.38886,0.0526 -0.77886,0.09936 -1.1701,0.140216 -0.39124,0.04086 -0.78368,0.07586 -1.17625,0.104956 -0.39256,0.02909 -0.78546,0.0524 -1.1783,0.0697 -0.39283,0.0173 -0.78543,0.02855 -1.17748,0.03403 -0.39204,0.0055 -0.78359,0.0052 -1.17379,-0.0013 -0.3902,-0.0063 -0.77911,-0.01866 -1.16641,-0.0369 -0.38729,-0.01824 -0.77282,-0.04244 -1.15616,-0.07257 -0.38334,-0.03013 -0.7643,-0.06618 -1.14263,-0.108237 -0.37832,-0.04206 -0.75397,-0.09031 -1.12623,-0.144315 -0.37225,-0.05401 -0.74142,-0.114003 -1.10655,-0.179983 -0.36513,-0.06598 -0.72624,-0.137674 -1.08318,-0.215654 -0.35695,-0.07798 -0.70965,-0.162135 -1.05736,-0.252141 -0.17385,-0.045 -0.34646,-0.09138 -0.51781,-0.139395 -0.17134,-0.04801 -0.34131,-0.0978 -0.51002,-0.148824 -0.16871,-0.05103 -0.3363,-0.103388 -0.50223,-0.157434 -0.16594,-0.05404 -0.33019,-0.109797 -0.49322,-0.166867 -0.16303,-0.05707 -0.3246,-0.11538 -0.4846,-0.175472 -0.15999,-0.0601 -0.31834,-0.121785 -0.47518,-0.184904 -0.15682,-0.06312 -0.31221,-0.127773 -0.46574,-0.193923 -0.15352,-0.06615 -0.3054,-0.133759 -0.45549,-0.202944 -0.1501,-0.06918 -0.29874,-0.140553 -0.44566,-0.213602 -0.14691,-0.07305 -0.29209,-0.147859 -0.43581,-0.224673 -0.14371,-0.07681 -0.28589,-0.155266 -0.42638,-0.235742 -0.14051,-0.08047 -0.27928,-0.162774 -0.41656,-0.246811 -0.13726,-0.08404 -0.27307,-0.169974 -0.40711,-0.257471 -0.13403,-0.0875 -0.2665,-0.176868 -0.39728,-0.26772 -0.13078,-0.09085 -0.25992,-0.183042 -0.38743,-0.27715 -0.12751,-0.09411 -0.25337,-0.190137 -0.3776,-0.2874 -0.12422,-0.09726 -0.24683,-0.196103 -0.36776,-0.29642 -0.12092,-0.100317 -0.23989,-0.202171 -0.35751,-0.30544 -0.11761,-0.103269 -0.23379,-0.207929 -0.34807,-0.314048 -0.11429,-0.106119 -0.22689,-0.213383 -0.33783,-0.32225 -0.11094,-0.108869 -0.21999,-0.219344 -0.32758,-0.330858 -0.10758,-0.111516 -0.21353,-0.224178 -0.31774,-0.338239 -0.10421,-0.11406 -0.20666,-0.229523 -0.30748,-0.346029 -0.10083,-0.116505 -0.20024,-0.234149 -0.29765,-0.352997 -0.0974,-0.118848 -0.19299,-0.238879 -0.287,-0.359967 -0.094,-0.12109 -0.18616,-0.243299 -0.27673,-0.366529 -0.0906,-0.123227 -0.17977,-0.247408 -0.26691,-0.372676 -0.0871,-0.125268 -0.17215,-0.251623 -0.25583,-0.378825 -0.0837,-0.127205 -0.16579,-0.25512 -0.24599,-0.384158 -0.0802,-0.129039 -0.15862,-0.259124 -0.23533,-0.389895 -0.0767,-0.130774 -0.15188,-0.262413 -0.22508,-0.394818 -0.0732,-0.132406 -0.14474,-0.26539 -0.21443,-0.399327 -0.0696,-0.133935 -0.1376,-0.268881 -0.20376,-0.404246 -0.0662,-0.135364 -0.13049,-0.271243 -0.1931,-0.407936 -0.0626,-0.136693 -0.1234,-0.274116 -0.18245,-0.412035 -0.059,-0.137919 -0.11631,-0.276273 -0.17178,-0.415314 -0.0554,-0.139045 -0.10924,-0.27853 -0.16112,-0.418596 -0.0519,-0.140068 -0.10178,-0.280889 -0.15006,-0.421876 -0.0483,-0.14099 -0.0947,-0.282526 -0.1394,-0.424337 -0.0447,-0.141809 -0.0877,-0.283856 -0.12873,-0.426383 -0.041,-0.142528 -0.0803,-0.285291 -0.11766,-0.428436 -0.0374,-0.143146 -0.0729,-0.286825 -0.1066,-0.430485 -0.0337,-0.143662 -0.0654,-0.28723 -0.0955,-0.431306 -0.0301,-0.144075 -0.0585,-0.288556 -0.0849,-0.432945 -0.0263,-0.144388 -0.0508,-0.288756 -0.0734,-0.433354 -0.0226,-0.144601 -0.0434,-0.289465 -0.0624,-0.434175 -0.019,-0.14471 -0.036,-0.289457 -0.0513,-0.434175 -0.0152,-0.144718 -0.0283,-0.28914 -0.0397,-0.433766 -0.0114,-0.144624 -0.021,-0.289335 -0.0287,-0.433764 -0.008,-0.14443 -0.0133,-0.288812 -0.0172,-0.432945 -0.004,-0.144134 -0.006,-0.287981 -0.006,-0.431715 -10e-5,-0.143735 0.002,-0.287249 0.006,-0.430486 0.004,-0.143237 0.009,-0.28621 0.0168,-0.428844 0.007,-0.142636 0.0169,-0.284862 0.0283,-0.426797 0.0113,-0.141932 0.025,-0.283615 0.0402,-0.424743 0.0152,-0.141131 0.0321,-0.281653 0.0513,-0.421877 0.0191,-0.140224 0.0401,-0.280197 0.0632,-0.419416 0.0229,-0.139216 0.0478,-0.277616 0.0746,-0.415726 0.0269,-0.138108 0.0558,-0.275955 0.0865,-0.412854 0.0308,-0.136901 0.0633,-0.273168 0.098,-0.408757 0.0347,-0.135589 0.0717,-0.270479 0.11029,-0.404655 0.0386,-0.134176 0.0792,-0.267485 0.12177,-0.400146 0.0426,-0.132663 0.0871,-0.264591 0.13365,-0.395638 0.0466,-0.131045 0.095,-0.261387 0.14554,-0.390716 0.0505,-0.129327 0.10332,-0.257466 0.15785,-0.384976 0.0545,-0.127511 0.11078,-0.254057 0.16932,-0.379646 0.0585,-0.125591 0.11906,-0.25034 0.18163,-0.373909 0.0626,-0.123567 0.12731,-0.246312 0.19392,-0.367757 0.0666,-0.121445 0.13515,-0.241568 0.20581,-0.360787 0.0707,-0.11922 0.14338,-0.237334 0.21812,-0.354228 0.0747,-0.116894 0.15159,-0.232791 0.23041,-0.347258 0.0788,-0.114466 0.1598,-0.227531 0.24271,-0.339467 0.29839,-0.40283 0.57342,-0.78205 0.82654,-1.13936 0.25311,-0.3573 0.48432,-0.69266 0.69492,-1.00856 0.2106,-0.3159 0.40068,-0.61227 0.57152,-0.8909 0.0854,-0.13931 0.16589,-0.2743 0.24189,-0.40507 0.076,-0.13077 0.14751,-0.25732 0.21442,-0.38005 0.0669,-0.12274 0.12919,-0.24146 0.18737,-0.35669 0.0581,-0.11522 0.11215,-0.22673 0.16194,-0.33496 0.0498,-0.10823 0.0952,-0.21313 0.13693,-0.31487 0.0417,-0.10174 0.0799,-0.20064 0.11398,-0.29642 0.034,-0.0958 0.0643,-0.18846 0.091,-0.27879 0.0267,-0.0903 0.0496,-0.17823 0.0693,-0.26362 0.0197,-0.0854 0.0358,-0.16831 0.0488,-0.24927 0.013,-0.081 0.0229,-0.15991 0.0295,-0.23697 0.006,-0.077 0.0104,-0.15223 0.0111,-0.22591 7.1e-4,-0.0736 -0.002,-0.14568 -0.006,-0.21647 -0.005,-0.0708 -0.0123,-0.14025 -0.0225,-0.20868 -0.0102,-0.0685 -0.0229,-0.13594 -0.0382,-0.20253 -0.0152,-0.0666 -0.0327,-0.13236 -0.0524,-0.19761 -0.0198,-0.0653 -0.042,-0.12989 -0.066,-0.19434 -0.024,-0.0644 -0.05,-0.12854 -0.0779,-0.19269 -0.0279,-0.0642 -0.0578,-0.12833 -0.0894,-0.1927 -0.063,-0.12874 -0.13265,-0.25842 -0.20787,-0.39112 -0.0752,-0.13271 -0.156,-0.26837 -0.24066,-0.40917 -0.0847,-0.1408 -0.1735,-0.2869 -0.26485,-0.43991 -0.0914,-0.15301 -0.18514,-0.31321 -0.28043,-0.48255 -0.0711,0.0181 -0.14335,0.0338 -0.21647,0.0471 -0.0731,0.0134 -0.14713,0.0244 -0.22222,0.0332 -0.0751,0.009 -0.15132,0.0154 -0.22835,0.0197 -0.077,0.004 -0.15475,0.006 -0.2337,0.006 -0.0789,3e-5 -0.15899,-0.002 -0.23984,-0.006 -0.0808,-0.004 -0.16245,-0.0103 -0.24517,-0.0185 -0.0827,-0.008 -0.16674,-0.0179 -0.25132,-0.0299 -0.0846,-0.012 -0.16983,-0.0261 -0.25625,-0.0418 -0.10944,-0.0199 -0.23365,-0.0476 -0.3698,-0.0832 -0.13615,-0.0356 -0.28416,-0.0788 -0.44238,-0.12996 -0.15821,-0.0512 -0.32659,-0.11013 -0.50223,-0.17671 -0.17564,-0.0666 -0.3585,-0.14073 -0.54692,-0.22262 -0.18843,-0.0819 -0.38232,-0.17148 -0.5789,-0.26854 -0.19658,-0.097 -0.39604,-0.20155 -0.59612,-0.31363 -0.20009,-0.1121 -0.40085,-0.23174 -0.59981,-0.35874 -0.0995,-0.0635 -0.1985,-0.12918 -0.29683,-0.19638 -0.0983,-0.0672 -0.19572,-0.13615 -0.29232,-0.20705 -0.0966,-0.0709 -0.1923,-0.14354 -0.28658,-0.21811 -0.0943,-0.0746 -0.18739,-0.15096 -0.27879,-0.22918 -0.0914,-0.0782 -0.18102,-0.15839 -0.26895,-0.24025 -0.0879,-0.0819 -0.17401,-0.16543 -0.25788,-0.25091 -0.0839,-0.0855 -0.16551,-0.17289 -0.24476,-0.26198 -0.0793,-0.0891 -0.15597,-0.17997 -0.23,-0.27264 -0.074,-0.0927 -0.14536,-0.18706 -0.21361,-0.28331 -0.0682,-0.0962 -0.13368,-0.19414 -0.19556,-0.29396 -0.0619,-0.0998 -0.12014,-0.20168 -0.17506,-0.30503 -0.0549,-0.10336 -0.10635,-0.20841 -0.15375,-0.31528 -0.0474,-0.10688 -0.0911,-0.21555 -0.13037,-0.32594 -0.0393,-0.11039 -0.0743,-0.22231 -0.10496,-0.33618 -0.0306,-0.11389 -0.0566,-0.2295 -0.0779,-0.34686 -0.0213,-0.11735 -0.0381,-0.23669 -0.0496,-0.35751 -0.0115,-0.12081 -0.0178,-0.24308 -0.0189,-0.36734 -7.9e-4,-0.12426 0.003,-0.25032 0.0131,-0.37801 0.0132,-0.0531 0.0289,-0.10328 0.0467,-0.15087 0.0179,-0.0476 0.038,-0.0925 0.0603,-0.13489 0.0223,-0.0424 0.0469,-0.0823 0.0734,-0.11971 0.0265,-0.0375 0.0551,-0.0726 0.0857,-0.10537 0.0306,-0.0328 0.0631,-0.0635 0.0976,-0.0918 0.0345,-0.0284 0.0712,-0.0545 0.10947,-0.0787 0.0382,-0.0242 0.0782,-0.0465 0.12012,-0.0668 0.0419,-0.0203 0.0855,-0.0386 0.13079,-0.0554 0.0453,-0.0167 0.0921,-0.0318 0.14062,-0.0451 0.0486,-0.0133 0.0988,-0.0251 0.15047,-0.0352 0.10329,-0.0205 0.21248,-0.0347 0.32717,-0.0443 0.11468,-0.01 0.2348,-0.0144 0.35955,-0.0152 0.12475,-8e-4 0.25435,0.002 0.38785,0.008 0.1335,0.006 0.27111,0.0147 0.41204,0.025 0.14092,0.0104 0.28509,0.0224 0.43212,0.0352 0.29405,0.0256 0.59882,0.0539 0.90935,0.0766 0.15526,0.0114 0.31203,0.0216 0.46943,0.0291 0.1574,0.008 0.31573,0.0128 0.47395,0.0144 0.15821,0.002 0.31623,-5.3e-4 0.47394,-0.007 0.15771,-0.006 0.31519,-0.0175 0.47108,-0.034 0.15358,-0.0164 0.30573,-0.0318 0.45672,-0.0452 0.15098,-0.0133 0.30043,-0.0246 0.44852,-0.032 0.1481,-0.007 0.29501,-0.0109 0.43992,-0.009 0.1449,0.002 0.28784,0.008 0.42925,0.0213 0.0278,-0.21643 0.0612,-0.43016 0.0996,-0.64162 0.0385,-0.21147 0.082,-0.42049 0.13079,-0.62688 0.0488,-0.20637 0.10273,-0.4101 0.16154,-0.61128 0.0588,-0.20118 0.12262,-0.39984 0.19105,-0.59571 0.0684,-0.19587 0.14166,-0.38887 0.21934,-0.57931 0.0777,-0.19044 0.15981,-0.37842 0.24641,-0.56332 0.0866,-0.1849 0.17752,-0.36685 0.27263,-0.5461 0.0951,-0.17925 0.19436,-0.35581 0.29765,-0.5293 0.1033,-0.17348 0.21074,-0.34405 0.32184,-0.51166 0.1111,-0.1676 0.22584,-0.33201 0.3444,-0.49362 0.11854,-0.16161 0.24089,-0.32049 0.36652,-0.47599 0.12563,-0.15551 0.25468,-0.30785 0.38703,-0.45714 0.13234,-0.14928 0.268,-0.29532 0.4067,-0.43827 0.1387,-0.14295 0.28047,-0.28251 0.42515,-0.41901 0.1447,-0.1365 0.29206,-0.26979 0.44238,-0.39973 0.15032,-0.12994 0.3036,-0.25679 0.45919,-0.38006 0.15558,-0.12327 0.31346,-0.24308 0.47394,-0.35956 0.16048,-0.11648 0.32369,-0.22947 0.4887,-0.33905 0.16502,-0.10958 0.33223,-0.21559 0.50141,-0.31815 0.1692,-0.10257 0.3403,-0.20181 0.51331,-0.29724 0.173,-0.0954 0.34792,-0.18731 0.52437,-0.27551 0.17645,-0.0882 0.35427,-0.17293 0.5338,-0.25379 0.17953,-0.0808 0.36057,-0.15785 0.54282,-0.23123 0.18225,-0.0734 0.3656,-0.14288 0.55021,-0.20868 0.1846,-0.0658 0.37057,-0.12762 0.55717,-0.18572 0.18659,-0.0581 0.37386,-0.11247 0.56208,-0.16277 0.18823,-0.0503 0.37712,-0.0966 0.56661,-0.13898 0.18948,-0.0424 0.37949,-0.0809 0.56987,-0.11521 0.1904,-0.0343 0.38142,-0.0648 0.57234,-0.091 0.19093,-0.0262 0.38206,-0.0481 0.57316,-0.066 0.1911,-0.0179 0.38225,-0.0319 0.57317,-0.0414 0.19091,-0.01 0.38157,-0.0149 0.57192,-0.016 z"
         sodipodi:nodetypes="sssscssssscsssscsscccsssssssssccssssscssssssssssssscssssscsssscssccsssssssssssssssssssccscsssssssssssssssssssssssscssssssssssssssssssssccssssssssssscscsscsssssscccsccssssssssssssssssssssssssssssssssssssssssssssssscsssssssssssssssssssssssssssssssssssssssssssssssssscsscscccsccsscscssssssssssssssssssssssssscssscssscsssccccssssssssssssssssssssssssssssccssssssscccsssccccscsscccssscssssssssssssssssssssssssssccc" />
    </g>
  </g>
</svg>
